<svg width="24" height="24" viewBox="0 0 24 24" fill="none" xmlns="http://www.w3.org/2000/svg">
<path fill-rule="evenodd" clip-rule="evenodd" d="M15.8152 18.6668C14.6912 19.3115 13.3887 19.68 12 19.68C7.75848 19.68 4.32002 16.2416 4.32002 12C4.32002 7.75848 7.75848 4.32002 12 4.32002C16.2416 4.32002 19.68 7.75848 19.68 12C19.68 13.3887 19.3115 14.6912 18.6668 15.8152C18.435 14.7321 17.4724 13.92 16.32 13.92C14.9945 13.92 13.92 14.9945 13.92 16.32C13.92 17.4724 14.7321 18.435 15.8152 18.6668ZM21.6 12C21.6 17.302 17.302 21.6 12 21.6C6.69809 21.6 2.40002 17.302 2.40002 12C2.40002 6.69809 6.69809 2.40002 12 2.40002C17.302 2.40002 21.6 6.69809 21.6 12ZM8.16002 14.88C9.22041 14.88 10.08 14.0204 10.08 12.96C10.08 11.8996 9.22041 11.04 8.16002 11.04C7.09964 11.04 6.24002 11.8996 6.24002 12.96C6.24002 14.0204 7.09964 14.88 8.16002 14.88ZM14.88 8.16002C14.88 8.69022 14.4502 9.12002 13.92 9.12002C13.3898 9.12002 12.96 8.69022 12.96 8.16002C12.96 7.62983 13.3898 7.20002 13.92 7.20002C14.4502 7.20002 14.88 7.62983 14.88 8.16002Z" fill="#FAF1E4"/>
</svg>
